# xmcd
#
# Track frame offsets:
#	150
#	13280
#	27987
#	43655
#	56370
#	73511
#	91402
#	108015
#	123737
#	139930
#	156724
#	171810
#
# Disc length: 2476 seconds
#
# Revision: 0
# Processed by: cddbd v1.5.2PL0 Copyright (c) Steve Scherf et al.
# Submitted via: EasyCDDAExtractor 8.2.3.1
#
DISCID=a809aa0c
DTITLE=Arty Hill and The Long Gone Daddys - Bar Of Gold
DYEAR=2008
DGENRE=country
TTITLE0=Tore-Up Junction
TTITLE1=I'm Thinkin' It's Better This Way
TTITLE2=Hall Of Fame Of Nothing
TTITLE3=A Wreck Of A Man
TTITLE4=Bar Of Gold
TTITLE5=Nashville Moon
TTITLE6=Step Back Mama
TTITLE7=Bring Out The Bible (We Ain't Got a Prayer)
TTITLE8=I Might Have Been A Lawer (But I Couldn't Pass The Bar)
TTITLE9=Don't Take It Out On Tina
TTITLE10=If You See Me Comin'
TTITLE11=Hankin' Around
EXTD=
EXTT0=
EXTT1=
EXTT2=
EXTT3=
EXTT4=
EXTT5=
EXTT6=
EXTT7=
EXTT8=
EXTT9=
EXTT10=
EXTT11=
PLAYORDER=
